<?xml version="1.0" encoding="UTF-8" standalone="no"?>
<!DOCTYPE svg PUBLIC "-//W3C//DTD SVG 1.1//EN"
 "http://www.w3.org/Graphics/SVG/1.1/DTD/svg11.dtd">
<!-- Generated by graphviz version 2.43.0 (0)
 -->
<!-- Title: TaskLifecycle Pages: 1 -->
<svg width="1272pt" height="775pt"
 viewBox="0.00 0.00 1271.50 775.00" xmlns="http://www.w3.org/2000/svg" xmlns:xlink="http://www.w3.org/1999/xlink">
<g id="graph0" class="graph" transform="scale(1 1) rotate(0) translate(36 739)">
<title>TaskLifecycle</title>
<polygon fill="#1a1a2e" stroke="transparent" points="-36,36 -36,-739 1235.5,-739 1235.5,36 -36,36"/>
<text text-anchor="middle" x="599.75" y="-686.2" font-family="Segoe UI, Arial, sans-serif" font-size="16.00" fill="#00d2ff">Task Lifecycle — Finite State Machine</text>
<!-- start -->
<g id="node1" class="node">
<title>start</title>
<ellipse fill="#00d2ff" stroke="#00d2ff" stroke-width="2" cx="214" cy="-666" rx="11" ry="11"/>
</g>
<!-- submitted -->
<g id="node3" class="node">
<title>submitted</title>
<path fill="#2196f3" stroke="#1565c0" stroke-width="1.5" d="M238,-587C238,-587 190,-587 190,-587 184,-587 178,-581 178,-575 178,-575 178,-563 178,-563 178,-557 184,-551 190,-551 190,-551 238,-551 238,-551 244,-551 250,-557 250,-563 250,-563 250,-575 250,-575 250,-581 244,-587 238,-587"/>
<text text-anchor="middle" x="214" y="-572.2" font-family="Segoe UI, Arial, sans-serif" font-size="11.00" fill="white">submitted</text>
<text text-anchor="middle" x="214" y="-560.2" font-family="Segoe UI, Arial, sans-serif" font-size="11.00" fill="white">(task 생성)</text>
</g>
<!-- start&#45;&gt;submitted -->
<g id="edge1" class="edge">
<title>start&#45;&gt;submitted</title>
<path fill="none" stroke="#00d2ff" stroke-width="1.2" d="M214,-654.83C214,-640.74 214,-614.8 214,-595.3"/>
<polygon fill="#00d2ff" stroke="#00d2ff" stroke-width="1.2" points="216.8,-595.13 214,-587.13 211.2,-595.13 216.8,-595.13"/>
<text text-anchor="middle" x="228" y="-618.8" font-family="Segoe UI, Arial, sans-serif" font-size="9.00" fill="#00d2ff">submit</text>
</g>
<!-- end -->
<g id="node2" class="node">
<title>end</title>
<ellipse fill="#333355" stroke="#888888" stroke-width="2" cx="676" cy="-18" rx="9" ry="9"/>
<ellipse fill="none" stroke="#888888" stroke-width="2" cx="676" cy="-18" rx="13" ry="13"/>
</g>
<!-- planned -->
<g id="node4" class="node">
<title>planned</title>
<path fill="#00bcd4" stroke="#00838f" stroke-width="1.5" d="M680,-473C680,-473 626,-473 626,-473 620,-473 614,-467 614,-461 614,-461 614,-449 614,-449 614,-443 620,-437 626,-437 626,-437 680,-437 680,-437 686,-437 692,-443 692,-449 692,-449 692,-461 692,-461 692,-467 686,-473 680,-473"/>
<text text-anchor="middle" x="653" y="-458.2" font-family="Segoe UI, Arial, sans-serif" font-size="11.00" fill="white">planned</text>
<text text-anchor="middle" x="653" y="-446.2" font-family="Segoe UI, Arial, sans-serif" font-size="11.00" fill="white">(실행 대기)</text>
</g>
<!-- submitted&#45;&gt;planned -->
<g id="edge2" class="edge">
<title>submitted&#45;&gt;planned</title>
<path fill="none" stroke="#555577" stroke-width="1.2" d="M250.3,-558.74C329.48,-538.54 517.69,-490.52 605.88,-468.02"/>
<polygon fill="#555577" stroke="#555577" stroke-width="1.2" points="606.78,-470.68 613.84,-465.99 605.4,-465.26 606.78,-470.68"/>
<text text-anchor="middle" x="489" y="-514.8" font-family="Segoe UI, Arial, sans-serif" font-size="9.00" fill="#b0b0b0">Planner 성공</text>
<text text-anchor="middle" x="489" y="-504.8" font-family="Segoe UI, Arial, sans-serif" font-size="9.00" fill="#b0b0b0">(review=false)</text>
</g>
<!-- waiting_for_human -->
<g id="node5" class="node">
<title>waiting_for_human</title>
<path fill="#ff5722" stroke="#bf360c" stroke-width="1.5" d="M161,-473C161,-473 77,-473 77,-473 71,-473 65,-467 65,-461 65,-461 65,-449 65,-449 65,-443 71,-437 77,-437 77,-437 161,-437 161,-437 167,-437 173,-443 173,-449 173,-449 173,-461 173,-461 173,-467 167,-473 161,-473"/>
<text text-anchor="middle" x="119" y="-458.2" font-family="Segoe UI, Arial, sans-serif" font-size="11.00" fill="white">waiting_for_human</text>
<text text-anchor="middle" x="119" y="-446.2" font-family="Segoe UI, Arial, sans-serif" font-size="11.00" fill="white">(승인 대기)</text>
</g>
<!-- submitted&#45;&gt;waiting_for_human -->
<g id="edge3" class="edge">
<title>submitted&#45;&gt;waiting_for_human</title>
<path fill="none" stroke="#555577" stroke-width="1.2" d="M177.87,-558.87C158.59,-552.02 136.34,-540.56 124,-522 116.17,-510.23 114.71,-494.52 115.31,-481.39"/>
<polygon fill="#555577" stroke="#555577" stroke-width="1.2" points="118.12,-481.39 115.95,-473.19 112.53,-480.95 118.12,-481.39"/>
<text text-anchor="middle" x="153" y="-514.8" font-family="Segoe UI, Arial, sans-serif" font-size="9.00" fill="#b0b0b0">Planner 성공</text>
<text text-anchor="middle" x="153" y="-504.8" font-family="Segoe UI, Arial, sans-serif" font-size="9.00" fill="#b0b0b0">(review=true)</text>
</g>
<!-- failed -->
<g id="node10" class="node">
<title>failed</title>
<path fill="#f44336" stroke="#b71c1c" stroke-width="2" d="M560,-131C560,-131 530,-131 530,-131 524,-131 518,-125 518,-119 518,-119 518,-107 518,-107 518,-101 524,-95 530,-95 530,-95 560,-95 560,-95 566,-95 572,-101 572,-107 572,-107 572,-119 572,-119 572,-125 566,-131 560,-131"/>
<text text-anchor="middle" x="545" y="-110.2" font-family="Segoe UI, Arial, sans-serif" font-size="11.00" fill="white">failed</text>
</g>
<!-- submitted&#45;&gt;failed -->
<g id="edge4" class="edge">
<title>submitted&#45;&gt;failed</title>
<path fill="none" stroke="#f44336" stroke-width="1.2" d="M250.04,-559.94C272.73,-553.2 301.18,-541.47 320,-522 341.91,-499.33 346,-487.53 346,-456 346,-456 346,-456 346,-226 346,-151.75 452.51,-126.2 509.69,-117.83"/>
<polygon fill="#f44336" stroke="#f44336" stroke-width="1.2" points="510.21,-120.58 517.75,-116.71 509.44,-115.04 510.21,-120.58"/>
<text text-anchor="middle" x="375" y="-338.8" font-family="Segoe UI, Arial, sans-serif" font-size="9.00" fill="#ef9a9a">Planner 실패</text>
</g>
<!-- cancelled -->
<g id="node11" class="node">
<title>cancelled</title>
<path fill="#888888" stroke="#555555" stroke-width="2" d="M159,-131C159,-131 121,-131 121,-131 115,-131 109,-125 109,-119 109,-119 109,-107 109,-107 109,-101 115,-95 121,-95 121,-95 159,-95 159,-95 165,-95 171,-101 171,-107 171,-107 171,-119 171,-119 171,-125 165,-131 159,-131"/>
<text text-anchor="middle" x="140" y="-110.2" font-family="Segoe UI, Arial, sans-serif" font-size="11.00" fill="white">cancelled</text>
</g>
<!-- submitted&#45;&gt;cancelled -->
<g id="edge5" class="edge">
<title>submitted&#45;&gt;cancelled</title>
<path fill="none" stroke="#888888" stroke-width="1.2" stroke-dasharray="5,2" d="M177.7,-565.29C116.64,-558.53 0,-535.25 0,-456 0,-456 0,-456 0,-226 0,-173.95 59.74,-142.11 101.17,-126.29"/>
<polygon fill="#888888" stroke="#888888" stroke-width="1.2" points="102.39,-128.82 108.93,-123.43 100.45,-123.57 102.39,-128.82"/>
<text text-anchor="middle" x="14" y="-338.8" font-family="Segoe UI, Arial, sans-serif" font-size="9.00" fill="#888888">cancel</text>
</g>
<!-- in_progress -->
<g id="node7" class="node">
<title>in_progress</title>
<path fill="#ff9800" stroke="#e65100" stroke-width="2.5" d="M807.5,-359C807.5,-359 726.5,-359 726.5,-359 720.5,-359 714.5,-353 714.5,-347 714.5,-347 714.5,-335 714.5,-335 714.5,-329 720.5,-323 726.5,-323 726.5,-323 807.5,-323 807.5,-323 813.5,-323 819.5,-329 819.5,-335 819.5,-335 819.5,-347 819.5,-347 819.5,-353 813.5,-359 807.5,-359"/>
<text text-anchor="middle" x="767" y="-344.2" font-family="Segoe UI, Arial, sans-serif" font-size="11.00">in_progress</text>
<text text-anchor="middle" x="767" y="-332.2" font-family="Segoe UI, Arial, sans-serif" font-size="11.00">(subtask 실행 중)</text>
</g>
<!-- planned&#45;&gt;in_progress -->
<g id="edge12" class="edge">
<title>planned&#45;&gt;in_progress</title>
<path fill="none" stroke="#ff9800" stroke-width="1.2" d="M672.23,-436.78C681.63,-428.24 693.03,-417.71 703,-408 717.35,-394.03 733,-377.9 745.24,-365.08"/>
<polygon fill="#ff9800" stroke="#ff9800" stroke-width="1.2" points="747.46,-366.8 750.95,-359.08 743.41,-362.94 747.46,-366.8"/>
<text text-anchor="middle" x="749" y="-400.8" font-family="Segoe UI, Arial, sans-serif" font-size="9.00" fill="#ffb74d">git branch →</text>
<text text-anchor="middle" x="749" y="-390.8" font-family="Segoe UI, Arial, sans-serif" font-size="9.00" fill="#ffb74d">subtask loop</text>
</g>
<!-- planned&#45;&gt;failed -->
<g id="edge13" class="edge">
<title>planned&#45;&gt;failed</title>
<path fill="none" stroke="#f44336" stroke-width="1.2" d="M615.48,-436.97C603.57,-429.72 591.54,-420.1 584,-408 530.1,-321.52 536.23,-193.04 541.79,-139.18"/>
<polygon fill="#f44336" stroke="#f44336" stroke-width="1.2" points="544.57,-139.46 542.67,-131.2 539.01,-138.85 544.57,-139.46"/>
<text text-anchor="middle" x="584.5" y="-281.8" font-family="Segoe UI, Arial, sans-serif" font-size="9.00" fill="#ef9a9a">branch 생성 실패</text>
</g>
<!-- waiting_for_human&#45;&gt;planned -->
<g id="edge6" class="edge">
<title>waiting_for_human&#45;&gt;planned</title>
<path fill="none" stroke="#4caf50" stroke-width="1.2" d="M147.74,-473.18C171.66,-487.17 207.14,-505.36 241,-513 309.81,-528.52 513.43,-486.6 606.11,-465.85"/>
<polygon fill="#4caf50" stroke="#4caf50" stroke-width="1.2" points="606.74,-468.58 613.93,-464.09 605.51,-463.12 606.74,-468.58"/>
<text text-anchor="middle" x="280" y="-514.8" font-family="Segoe UI, Arial, sans-serif" font-size="9.00" fill="#81c784">approve /</text>
<text text-anchor="middle" x="280" y="-504.8" font-family="Segoe UI, Arial, sans-serif" font-size="9.00" fill="#81c784">timeout 자동승인</text>
</g>
<!-- needs_replan -->
<g id="node6" class="node">
<title>needs_replan</title>
<path fill="#e91e63" stroke="#880e4f" stroke-width="1.5" d="M490.5,-473C490.5,-473 423.5,-473 423.5,-473 417.5,-473 411.5,-467 411.5,-461 411.5,-461 411.5,-449 411.5,-449 411.5,-443 417.5,-437 423.5,-437 423.5,-437 490.5,-437 490.5,-437 496.5,-437 502.5,-443 502.5,-449 502.5,-449 502.5,-461 502.5,-461 502.5,-467 496.5,-473 490.5,-473"/>
<text text-anchor="middle" x="457" y="-458.2" font-family="Segoe UI, Arial, sans-serif" font-size="11.00" fill="white">needs_replan</text>
<text text-anchor="middle" x="457" y="-446.2" font-family="Segoe UI, Arial, sans-serif" font-size="11.00" fill="white">(재계획 필요)</text>
</g>
<!-- waiting_for_human&#45;&gt;needs_replan -->
<g id="edge7" class="edge">
<title>waiting_for_human&#45;&gt;needs_replan</title>
<path fill="none" stroke="#e91e63" stroke-width="1.2" d="M173.05,-448.23C213.77,-443.94 270.99,-439.6 321.25,-442 348.23,-443.29 378.13,-446.01 402.98,-448.63"/>
<polygon fill="#e91e63" stroke="#e91e63" stroke-width="1.2" points="402.95,-451.45 411.21,-449.52 403.55,-445.88 402.95,-451.45"/>
<text text-anchor="middle" x="292.25" y="-444.8" font-family="Segoe UI, Arial, sans-serif" font-size="9.00" fill="#f48fb1">reject (modify)</text>
</g>
<!-- waiting_for_human&#45;&gt;cancelled -->
<g id="edge8" class="edge">
<title>waiting_for_human&#45;&gt;cancelled</title>
<path fill="none" stroke="#888888" stroke-width="1.2" stroke-dasharray="5,2" d="M120.07,-436.67C123.52,-380.85 134.35,-205.55 138.42,-139.51"/>
<polygon fill="#888888" stroke="#888888" stroke-width="1.2" points="141.23,-139.45 138.93,-131.29 135.64,-139.11 141.23,-139.45"/>
<text text-anchor="middle" x="144" y="-281.8" font-family="Segoe UI, Arial, sans-serif" font-size="9.00" fill="#888888">cancel</text>
</g>
<!-- needs_replan&#45;&gt;planned -->
<g id="edge10" class="edge">
<title>needs_replan&#45;&gt;planned</title>
<path fill="none" stroke="#555577" stroke-width="1.2" d="M502.95,-455C533.91,-455 574.62,-455 605.82,-455"/>
<polygon fill="#555577" stroke="#555577" stroke-width="1.2" points="605.95,-457.8 613.95,-455 605.95,-452.2 605.95,-457.8"/>
<text text-anchor="middle" x="558.25" y="-470.8" font-family="Segoe UI, Arial, sans-serif" font-size="9.00" fill="#b0b0b0">Replanner 성공</text>
<text text-anchor="middle" x="558.25" y="-460.8" font-family="Segoe UI, Arial, sans-serif" font-size="9.00" fill="#b0b0b0">(review=false)</text>
</g>
<!-- needs_replan&#45;&gt;waiting_for_human -->
<g id="edge9" class="edge">
<title>needs_replan&#45;&gt;waiting_for_human</title>
<path fill="none" stroke="#555577" stroke-width="1.2" d="M411.5,-455C352.23,-455 248.33,-455 181.65,-455"/>
<polygon fill="#555577" stroke="#555577" stroke-width="1.2" points="181.31,-452.2 173.31,-455 181.31,-457.8 181.31,-452.2"/>
<text text-anchor="middle" x="292.25" y="-470.8" font-family="Segoe UI, Arial, sans-serif" font-size="9.00" fill="#b0b0b0">Replanner 성공</text>
<text text-anchor="middle" x="292.25" y="-460.8" font-family="Segoe UI, Arial, sans-serif" font-size="9.00" fill="#b0b0b0">(review=true)</text>
</g>
<!-- needs_replan&#45;&gt;failed -->
<g id="edge11" class="edge">
<title>needs_replan&#45;&gt;failed</title>
<path fill="none" stroke="#f44336" stroke-width="1.2" d="M450.02,-436.7C437.91,-404.12 415.95,-331.73 434,-274 451.23,-218.87 494.9,-166.06 522.05,-137.03"/>
<polygon fill="#f44336" stroke="#f44336" stroke-width="1.2" points="524.1,-138.94 527.57,-131.21 520.04,-135.08 524.1,-138.94"/>
<text text-anchor="middle" x="468.5" y="-281.8" font-family="Segoe UI, Arial, sans-serif" font-size="9.00" fill="#ef9a9a">Replanner 실패</text>
</g>
<!-- in_progress&#45;&gt;needs_replan -->
<g id="edge17" class="edge">
<title>in_progress&#45;&gt;needs_replan</title>
<path fill="none" stroke="#e91e63" stroke-width="1.2" d="M719.8,-359.05C663.45,-379.41 569.45,-413.37 510.47,-434.68"/>
<polygon fill="#e91e63" stroke="#e91e63" stroke-width="1.2" points="509.31,-432.12 502.74,-437.47 511.22,-437.39 509.31,-432.12"/>
<text text-anchor="middle" x="657" y="-400.8" font-family="Segoe UI, Arial, sans-serif" font-size="9.00" fill="#f48fb1">Reporter:</text>
<text text-anchor="middle" x="657" y="-390.8" font-family="Segoe UI, Arial, sans-serif" font-size="9.00" fill="#f48fb1">replan 요청</text>
</g>
<!-- in_progress&#45;&gt;in_progress -->
<g id="edge14" class="edge">
<title>in_progress&#45;&gt;in_progress</title>
<path fill="none" stroke="#ff9800" stroke-width="1.2" stroke-dasharray="5,2" d="M819.55,-351.36C842.63,-352.27 862.5,-348.82 862.5,-341 862.5,-334.13 847.15,-330.63 827.76,-330.5"/>
<polygon fill="#ff9800" stroke="#ff9800" stroke-width="1.2" points="827.5,-327.71 819.55,-330.64 827.59,-333.31 827.5,-327.71"/>
<text text-anchor="middle" x="932" y="-343.8" font-family="Segoe UI, Arial, sans-serif" font-size="9.00" fill="#ffb74d">subtask 완료 → 다음</text>
<text text-anchor="middle" x="932" y="-333.8" font-family="Segoe UI, Arial, sans-serif" font-size="9.00" fill="#ffb74d">Reviewer 거절 → Coder 재시도</text>
</g>
<!-- pending_review -->
<g id="node8" class="node">
<title>pending_review</title>
<path fill="#ff5722" stroke="#bf360c" stroke-width="1.5" d="M947.5,-245C947.5,-245 874.5,-245 874.5,-245 868.5,-245 862.5,-239 862.5,-233 862.5,-233 862.5,-221 862.5,-221 862.5,-215 868.5,-209 874.5,-209 874.5,-209 947.5,-209 947.5,-209 953.5,-209 959.5,-215 959.5,-221 959.5,-221 959.5,-233 959.5,-233 959.5,-239 953.5,-245 947.5,-245"/>
<text text-anchor="middle" x="911" y="-230.2" font-family="Segoe UI, Arial, sans-serif" font-size="11.00" fill="white">pending_review</text>
<text text-anchor="middle" x="911" y="-218.2" font-family="Segoe UI, Arial, sans-serif" font-size="11.00" fill="white">(PR 머지 대기)</text>
</g>
<!-- in_progress&#45;&gt;pending_review -->
<g id="edge16" class="edge">
<title>in_progress&#45;&gt;pending_review</title>
<path fill="none" stroke="#555577" stroke-width="1.2" d="M788.87,-322.99C813.93,-303.5 855.06,-271.51 882.58,-250.1"/>
<polygon fill="#555577" stroke="#555577" stroke-width="1.2" points="884.33,-252.29 888.92,-245.17 880.89,-247.87 884.33,-252.29"/>
<text text-anchor="middle" x="889" y="-286.8" font-family="Segoe UI, Arial, sans-serif" font-size="9.00" fill="#b0b0b0">모든 subtask 완료</text>
<text text-anchor="middle" x="889" y="-276.8" font-family="Segoe UI, Arial, sans-serif" font-size="9.00" fill="#b0b0b0">+ auto_merge=false</text>
</g>
<!-- completed -->
<g id="node9" class="node">
<title>completed</title>
<path fill="#4caf50" stroke="#2e7d32" stroke-width="2" d="M969,-131C969,-131 927,-131 927,-131 921,-131 915,-125 915,-119 915,-119 915,-107 915,-107 915,-101 921,-95 927,-95 927,-95 969,-95 969,-95 975,-95 981,-101 981,-107 981,-107 981,-119 981,-119 981,-125 975,-131 969,-131"/>
<text text-anchor="middle" x="948" y="-110.2" font-family="Segoe UI, Arial, sans-serif" font-size="11.00" fill="white">completed</text>
</g>
<!-- in_progress&#45;&gt;completed -->
<g id="edge15" class="edge">
<title>in_progress&#45;&gt;completed</title>
<path fill="none" stroke="#4caf50" stroke-width="1.2" d="M819.54,-334.5C855.69,-328.77 903.56,-317.2 940,-294 963.95,-278.75 966.76,-269.57 981,-245 1000.68,-211.04 1021.93,-195.42 1005,-160 1000.63,-150.86 993.46,-142.95 985.65,-136.39"/>
<polygon fill="#4caf50" stroke="#4caf50" stroke-width="1.2" points="987.02,-133.91 978.99,-131.21 983.58,-138.33 987.02,-133.91"/>
<text text-anchor="middle" x="1044" y="-229.8" font-family="Segoe UI, Arial, sans-serif" font-size="9.00" fill="#81c784">모든 subtask 완료</text>
<text text-anchor="middle" x="1044" y="-219.8" font-family="Segoe UI, Arial, sans-serif" font-size="9.00" fill="#81c784">+ auto_merge=true</text>
</g>
<!-- in_progress&#45;&gt;failed -->
<g id="edge19" class="edge">
<title>in_progress&#45;&gt;failed</title>
<path fill="none" stroke="#f44336" stroke-width="1.2" d="M760.07,-322.63C748.74,-295.84 724.14,-243.88 691,-209 658.51,-174.8 611.4,-147.01 579.56,-130.51"/>
<polygon fill="#f44336" stroke="#f44336" stroke-width="1.2" points="580.61,-127.9 572.21,-126.76 578.06,-132.89 580.61,-127.9"/>
<text text-anchor="middle" x="745" y="-229.8" font-family="Segoe UI, Arial, sans-serif" font-size="9.00" fill="#ef9a9a">Agent/git/PR</text>
<text text-anchor="middle" x="745" y="-219.8" font-family="Segoe UI, Arial, sans-serif" font-size="9.00" fill="#ef9a9a">실패</text>
</g>
<!-- in_progress&#45;&gt;cancelled -->
<g id="edge20" class="edge">
<title>in_progress&#45;&gt;cancelled</title>
<path fill="none" stroke="#888888" stroke-width="1.2" stroke-dasharray="5,2" d="M736.4,-322.88C710.24,-308.67 671.34,-288.5 636,-274 469.96,-205.87 263.46,-147.26 178.87,-124.32"/>
<polygon fill="#888888" stroke="#888888" stroke-width="1.2" points="179.52,-121.6 171.07,-122.21 178.06,-127 179.52,-121.6"/>
<text text-anchor="middle" x="570" y="-224.8" font-family="Segoe UI, Arial, sans-serif" font-size="9.00" fill="#888888">cancel</text>
</g>
<!-- escalated -->
<g id="node12" class="node">
<title>escalated</title>
<path fill="#9c27b0" stroke="#6a1b9a" stroke-width="2" d="M1187.5,-131C1187.5,-131 1104.5,-131 1104.5,-131 1098.5,-131 1092.5,-125 1092.5,-119 1092.5,-119 1092.5,-107 1092.5,-107 1092.5,-101 1098.5,-95 1104.5,-95 1104.5,-95 1187.5,-95 1187.5,-95 1193.5,-95 1199.5,-101 1199.5,-107 1199.5,-107 1199.5,-119 1199.5,-119 1199.5,-125 1193.5,-131 1187.5,-131"/>
<text text-anchor="middle" x="1146" y="-116.2" font-family="Segoe UI, Arial, sans-serif" font-size="11.00" fill="white">escalated</text>
<text text-anchor="middle" x="1146" y="-104.2" font-family="Segoe UI, Arial, sans-serif" font-size="11.00" fill="white">(수동 개입 필요)</text>
</g>
<!-- in_progress&#45;&gt;escalated -->
<g id="edge18" class="edge">
<title>in_progress&#45;&gt;escalated</title>
<path fill="none" stroke="#9c27b0" stroke-width="1.2" d="M819.75,-340.11C892.26,-337.28 1022.03,-321.03 1095,-245 1123.45,-215.35 1136.54,-168.03 1142.17,-139.11"/>
<polygon fill="#9c27b0" stroke="#9c27b0" stroke-width="1.2" points="1144.94,-139.5 1143.62,-131.12 1139.43,-138.49 1144.94,-139.5"/>
<text text-anchor="middle" x="1152" y="-229.8" font-family="Segoe UI, Arial, sans-serif" font-size="9.00" fill="#ce93d8">한도 초과</text>
<text text-anchor="middle" x="1152" y="-219.8" font-family="Segoe UI, Arial, sans-serif" font-size="9.00" fill="#ce93d8">에스컬레이션</text>
</g>
<!-- pending_review&#45;&gt;completed -->
<g id="edge21" class="edge">
<title>pending_review&#45;&gt;completed</title>
<path fill="none" stroke="#4caf50" stroke-width="1.2" stroke-dasharray="5,2" d="M916.62,-208.99C922.79,-190.32 932.74,-160.18 939.79,-138.87"/>
<polygon fill="#4caf50" stroke="#4caf50" stroke-width="1.2" points="942.48,-139.65 942.33,-131.17 937.16,-137.89 942.48,-139.65"/>
<text text-anchor="middle" x="963.5" y="-172.8" font-family="Segoe UI, Arial, sans-serif" font-size="9.00" fill="#81c784">PR 수동 머지</text>
<text text-anchor="middle" x="963.5" y="-162.8" font-family="Segoe UI, Arial, sans-serif" font-size="9.00" fill="#81c784">(외부)</text>
</g>
<!-- pending_review&#45;&gt;failed -->
<g id="edge22" class="edge">
<title>pending_review&#45;&gt;failed</title>
<path fill="none" stroke="#f44336" stroke-width="1.2" stroke-dasharray="5,2" d="M885.21,-208.81C861.45,-193.75 824.71,-172.37 790,-160 717.94,-134.31 628.58,-122.16 580.17,-117.11"/>
<polygon fill="#f44336" stroke="#f44336" stroke-width="1.2" points="580.43,-114.32 572.19,-116.3 579.86,-119.89 580.43,-114.32"/>
<text text-anchor="middle" x="866.5" y="-172.8" font-family="Segoe UI, Arial, sans-serif" font-size="9.00" fill="#ef9a9a">PR 거부/닫힘</text>
<text text-anchor="middle" x="866.5" y="-162.8" font-family="Segoe UI, Arial, sans-serif" font-size="9.00" fill="#ef9a9a">(외부)</text>
</g>
<!-- completed&#45;&gt;end -->
<g id="edge23" class="edge">
<title>completed&#45;&gt;end</title>
<path fill="none" stroke="#4caf50" stroke-width="1.2" d="M914.92,-100.69C857.74,-81.14 742.11,-41.6 695.82,-25.78"/>
<polygon fill="#4caf50" stroke="#4caf50" stroke-width="1.2" points="696.49,-23.05 688.01,-23.11 694.68,-28.34 696.49,-23.05"/>
</g>
<!-- failed&#45;&gt;end -->
<g id="edge24" class="edge">
<title>failed&#45;&gt;end</title>
<path fill="none" stroke="#f44336" stroke-width="1.2" d="M569.03,-94.94C595.02,-76.49 635.82,-47.53 658.79,-31.22"/>
<polygon fill="#f44336" stroke="#f44336" stroke-width="1.2" points="660.68,-33.31 665.58,-26.4 657.44,-28.75 660.68,-33.31"/>
</g>
<!-- resubmit_note -->
<g id="node13" class="node">
<title>resubmit_note</title>
<polygon fill="#2a2a4a" stroke="#555577" stroke-width="1.5" points="267.5,-36 202.5,-36 202.5,0 273.5,0 273.5,-30 267.5,-36"/>
<polyline fill="none" stroke="#555577" stroke-width="1.5" points="267.5,-36 267.5,-30 "/>
<polyline fill="none" stroke="#555577" stroke-width="1.5" points="273.5,-30 267.5,-30 "/>
<text text-anchor="middle" x="238" y="-20.8" font-family="Segoe UI, Arial, sans-serif" font-size="9.00" fill="#00d2ff">resubmit →</text>
<text text-anchor="middle" x="238" y="-10.8" font-family="Segoe UI, Arial, sans-serif" font-size="9.00" fill="#00d2ff">새 task 생성</text>
</g>
<!-- failed&#45;&gt;resubmit_note -->
<g id="edge27" class="edge">
<title>failed&#45;&gt;resubmit_note</title>
<path fill="none" stroke="#00d2ff" stroke-width="1.2" stroke-dasharray="1,5" d="M517.76,-103.75C462.14,-86.9 335.57,-48.56 273.57,-29.77"/>
</g>
<!-- cancelled&#45;&gt;end -->
<g id="edge25" class="edge">
<title>cancelled&#45;&gt;end</title>
<path fill="none" stroke="#888888" stroke-width="1.2" d="M171.13,-106.6C269.65,-89.5 572.92,-36.88 655.21,-22.61"/>
<polygon fill="#888888" stroke="#888888" stroke-width="1.2" points="655.91,-25.33 663.31,-21.2 654.95,-19.81 655.91,-25.33"/>
</g>
<!-- cancelled&#45;&gt;resubmit_note -->
<g id="edge28" class="edge">
<title>cancelled&#45;&gt;resubmit_note</title>
<path fill="none" stroke="#00d2ff" stroke-width="1.2" stroke-dasharray="1,5" d="M147.08,-94.58C151.53,-85.09 157.96,-73.57 166,-65 176.76,-53.54 190.95,-43.68 203.89,-36.06"/>
</g>
<!-- escalated&#45;&gt;end -->
<g id="edge26" class="edge">
<title>escalated&#45;&gt;end</title>
<path fill="none" stroke="#9c27b0" stroke-width="1.2" d="M1092.09,-101.33C988.49,-80.83 765.78,-36.77 696.8,-23.12"/>
<polygon fill="#9c27b0" stroke="#9c27b0" stroke-width="1.2" points="697.21,-20.34 688.82,-21.54 696.12,-25.84 697.21,-20.34"/>
</g>
<!-- resubmit_note&#45;&gt;submitted -->
<g id="edge29" class="edge">
<title>resubmit_note&#45;&gt;submitted</title>
<path fill="none" stroke="#00d2ff" stroke-width="1.2" stroke-dasharray="1,5" d="M238,-36.14C238,-54.8 238,-85.52 238,-112 238,-399 238,-399 238,-399 238,-450.41 226.98,-509.76 219.87,-542.68"/>
<polygon fill="#00d2ff" stroke="#00d2ff" stroke-width="1.2" points="217.06,-542.43 218.07,-550.84 222.53,-543.63 217.06,-542.43"/>
<text text-anchor="middle" x="253.5" y="-281.8" font-family="Segoe UI, Arial, sans-serif" font-size="9.00" fill="#b0b0b0">새 task</text>
</g>
</g>
</svg>
