<?xml version="1.0" encoding="UTF-8" standalone="no"?>
<!DOCTYPE svg PUBLIC "-//W3C//DTD SVG 1.1//EN"
 "http://www.w3.org/Graphics/SVG/1.1/DTD/svg11.dtd">
<!-- Generated by graphviz version 2.43.0 (0)
 -->
<!-- Title: TaskLifecycle Pages: 1 -->
<svg width="1348pt" height="762pt"
 viewBox="0.00 0.00 1348.20 762.20" xmlns="http://www.w3.org/2000/svg" xmlns:xlink="http://www.w3.org/1999/xlink">
<g id="graph0" class="graph" transform="scale(1 1) rotate(0) translate(21.6 740.6)">
<title>TaskLifecycle</title>
<polygon fill="white" stroke="transparent" points="-21.6,21.6 -21.6,-740.6 1326.6,-740.6 1326.6,21.6 -21.6,21.6"/>
<text text-anchor="middle" x="652.5" y="-697.4" font-family="Segoe UI, Arial, sans-serif" font-size="22.00" fill="#0055aa">Task Lifecycle — Finite State Machine</text>
<!-- start -->
<g id="node1" class="node">
<title>start</title>
<ellipse fill="#0077aa" stroke="#0077aa" stroke-width="2.5" cx="306" cy="-669" rx="18" ry="18"/>
</g>
<!-- submitted -->
<g id="node3" class="node">
<title>submitted</title>
<path fill="#2196f3" stroke="#1565c0" stroke-width="2" d="M342,-597C342,-597 270,-597 270,-597 264,-597 258,-591 258,-585 258,-585 258,-561 258,-561 258,-555 264,-549 270,-549 270,-549 342,-549 342,-549 348,-549 354,-555 354,-561 354,-561 354,-585 354,-585 354,-591 348,-597 342,-597"/>
<text text-anchor="middle" x="306" y="-578.2" font-family="Segoe UI, Arial, sans-serif" font-size="16.00" fill="white">submitted</text>
<text text-anchor="middle" x="306" y="-560.2" font-family="Segoe UI, Arial, sans-serif" font-size="16.00" fill="white">(task 생성)</text>
</g>
<!-- start&#45;&gt;submitted -->
<g id="edge1" class="edge">
<title>start&#45;&gt;submitted</title>
<path fill="none" stroke="#0077aa" stroke-width="1.5" d="M306,-650.76C306,-638.65 306,-622.05 306,-607.39"/>
<polygon fill="#0077aa" stroke="#0077aa" stroke-width="1.5" points="309.5,-607.15 306,-597.15 302.5,-607.15 309.5,-607.15"/>
<text text-anchor="middle" x="326" y="-620.6" font-family="Segoe UI, Arial, sans-serif" font-size="13.00" fill="#0077aa">submit</text>
</g>
<!-- end -->
<g id="node2" class="node">
<title>end</title>
<ellipse fill="#555577" stroke="#888888" stroke-width="2.5" cx="733" cy="-22" rx="18" ry="18"/>
<ellipse fill="none" stroke="#888888" stroke-width="2.5" cx="733" cy="-22" rx="22" ry="22"/>
</g>
<!-- planned -->
<g id="node4" class="node">
<title>planned</title>
<path fill="#00bcd4" stroke="#00838f" stroke-width="2" d="M760.5,-481C760.5,-481 689.5,-481 689.5,-481 683.5,-481 677.5,-475 677.5,-469 677.5,-469 677.5,-445 677.5,-445 677.5,-439 683.5,-433 689.5,-433 689.5,-433 760.5,-433 760.5,-433 766.5,-433 772.5,-439 772.5,-445 772.5,-445 772.5,-469 772.5,-469 772.5,-475 766.5,-481 760.5,-481"/>
<text text-anchor="middle" x="725" y="-462.2" font-family="Segoe UI, Arial, sans-serif" font-size="16.00" fill="white">planned</text>
<text text-anchor="middle" x="725" y="-444.2" font-family="Segoe UI, Arial, sans-serif" font-size="16.00" fill="white">(실행 대기)</text>
</g>
<!-- submitted&#45;&gt;planned -->
<g id="edge2" class="edge">
<title>submitted&#45;&gt;planned</title>
<path fill="none" stroke="#666688" stroke-width="1.5" d="M354.06,-558.92C431.73,-537.79 584.51,-496.23 667.7,-473.59"/>
<polygon fill="#666688" stroke="#666688" stroke-width="1.5" points="668.77,-476.93 677.5,-470.92 666.93,-470.17 668.77,-476.93"/>
<text text-anchor="middle" x="608.5" y="-518.6" font-family="Segoe UI, Arial, sans-serif" font-size="13.00" fill="#333333">Planner 성공</text>
<text text-anchor="middle" x="608.5" y="-504.6" font-family="Segoe UI, Arial, sans-serif" font-size="13.00" fill="#333333">(review=false)</text>
</g>
<!-- waiting_for_human_plan_confirm -->
<g id="node5" class="node">
<title>waiting_for_human_plan_confirm</title>
<path fill="#ff5722" stroke="#bf360c" stroke-width="2" d="M287.5,-481C287.5,-481 50.5,-481 50.5,-481 44.5,-481 38.5,-475 38.5,-469 38.5,-469 38.5,-445 38.5,-445 38.5,-439 44.5,-433 50.5,-433 50.5,-433 287.5,-433 287.5,-433 293.5,-433 299.5,-439 299.5,-445 299.5,-445 299.5,-469 299.5,-469 299.5,-475 293.5,-481 287.5,-481"/>
<text text-anchor="middle" x="169" y="-462.2" font-family="Segoe UI, Arial, sans-serif" font-size="16.00" fill="white">waiting_for_human_plan_confirm</text>
<text text-anchor="middle" x="169" y="-444.2" font-family="Segoe UI, Arial, sans-serif" font-size="16.00" fill="white">(승인 대기)</text>
</g>
<!-- submitted&#45;&gt;waiting_for_human_plan_confirm -->
<g id="edge3" class="edge">
<title>submitted&#45;&gt;waiting_for_human_plan_confirm</title>
<path fill="none" stroke="#666688" stroke-width="1.5" d="M257.96,-558.12C240.74,-551.4 222.12,-541.92 208,-529 196.56,-518.53 187.74,-503.92 181.41,-490.66"/>
<polygon fill="#666688" stroke="#666688" stroke-width="1.5" points="184.51,-489.03 177.23,-481.33 178.12,-491.89 184.51,-489.03"/>
<text text-anchor="middle" x="247.5" y="-518.6" font-family="Segoe UI, Arial, sans-serif" font-size="13.00" fill="#333333">Planner 성공</text>
<text text-anchor="middle" x="247.5" y="-504.6" font-family="Segoe UI, Arial, sans-serif" font-size="13.00" fill="#333333">(review=true)</text>
</g>
<!-- failed -->
<g id="node10" class="node">
<title>failed</title>
<path fill="#f44336" stroke="#b71c1c" stroke-width="2.5" d="M592,-127C592,-127 554,-127 554,-127 548,-127 542,-121 542,-115 542,-115 542,-103 542,-103 542,-97 548,-91 554,-91 554,-91 592,-91 592,-91 598,-91 604,-97 604,-103 604,-103 604,-115 604,-115 604,-121 598,-127 592,-127"/>
<text text-anchor="middle" x="573" y="-105.2" font-family="Segoe UI, Arial, sans-serif" font-size="16.00" fill="white">failed</text>
</g>
<!-- submitted&#45;&gt;failed -->
<g id="edge4" class="edge">
<title>submitted&#45;&gt;failed</title>
<path fill="none" stroke="#f44336" stroke-width="1.5" d="M354.29,-567.58C379.79,-562.51 409.03,-551.74 425,-529 432.15,-518.81 426.45,-513.36 425,-501 419.63,-455.17 401,-446.14 401,-400 401,-400 401,-400 401,-224 401,-161.36 481.23,-131.11 532.1,-118.22"/>
<polygon fill="#f44336" stroke="#f44336" stroke-width="1.5" points="532.95,-121.62 541.85,-115.87 531.31,-114.81 532.95,-121.62"/>
<text text-anchor="middle" x="439" y="-337.6" font-family="Segoe UI, Arial, sans-serif" font-size="13.00" fill="#b71c1c">Planner 실패</text>
</g>
<!-- cancelled -->
<g id="node11" class="node">
<title>cancelled</title>
<path fill="#888888" stroke="#555555" stroke-width="2.5" d="M288,-127C288,-127 220,-127 220,-127 214,-127 208,-121 208,-115 208,-115 208,-103 208,-103 208,-97 214,-91 220,-91 220,-91 288,-91 288,-91 294,-91 300,-97 300,-103 300,-103 300,-115 300,-115 300,-121 294,-127 288,-127"/>
<text text-anchor="middle" x="254" y="-105.2" font-family="Segoe UI, Arial, sans-serif" font-size="16.00" fill="white">cancelled</text>
</g>
<!-- submitted&#45;&gt;cancelled -->
<g id="edge5" class="edge">
<title>submitted&#45;&gt;cancelled</title>
<path fill="none" stroke="#888888" stroke-width="1.5" stroke-dasharray="5,2" d="M257.85,-564.33C171.68,-549.24 0,-512.35 0,-458 0,-458 0,-458 0,-224 0,-138.02 122.64,-116.49 197.48,-111.35"/>
<polygon fill="#888888" stroke="#888888" stroke-width="1.5" points="197.94,-114.83 207.71,-110.73 197.51,-107.84 197.94,-114.83"/>
<text text-anchor="middle" x="20" y="-337.6" font-family="Segoe UI, Arial, sans-serif" font-size="13.00" fill="#555555">cancel</text>
</g>
<!-- in_progress -->
<g id="node7" class="node">
<title>in_progress</title>
<path fill="#ff9800" stroke="#e65100" stroke-width="3" d="M784.5,-365C784.5,-365 667.5,-365 667.5,-365 661.5,-365 655.5,-359 655.5,-353 655.5,-353 655.5,-329 655.5,-329 655.5,-323 661.5,-317 667.5,-317 667.5,-317 784.5,-317 784.5,-317 790.5,-317 796.5,-323 796.5,-329 796.5,-329 796.5,-353 796.5,-353 796.5,-359 790.5,-365 784.5,-365"/>
<text text-anchor="middle" x="726" y="-346.2" font-family="Segoe UI, Arial, sans-serif" font-size="16.00">in_progress</text>
<text text-anchor="middle" x="726" y="-328.2" font-family="Segoe UI, Arial, sans-serif" font-size="16.00">(subtask 실행 중)</text>
</g>
<!-- planned&#45;&gt;in_progress -->
<g id="edge12" class="edge">
<title>planned&#45;&gt;in_progress</title>
<path fill="none" stroke="#ff9800" stroke-width="1.5" d="M725.2,-432.93C725.35,-416.32 725.55,-393.66 725.71,-375.12"/>
<polygon fill="#ff9800" stroke="#ff9800" stroke-width="1.5" points="729.21,-375.07 725.8,-365.04 722.21,-375 729.21,-375.07"/>
<text text-anchor="middle" x="764" y="-402.6" font-family="Segoe UI, Arial, sans-serif" font-size="13.00" fill="#e65100">git branch →</text>
<text text-anchor="middle" x="764" y="-388.6" font-family="Segoe UI, Arial, sans-serif" font-size="13.00" fill="#e65100">subtask loop</text>
</g>
<!-- planned&#45;&gt;failed -->
<g id="edge13" class="edge">
<title>planned&#45;&gt;failed</title>
<path fill="none" stroke="#f44336" stroke-width="1.5" d="M677.37,-453.77C647.64,-449.67 611.29,-439.16 591,-413 526.99,-330.49 551.29,-194.16 565.54,-136.77"/>
<polygon fill="#f44336" stroke="#f44336" stroke-width="1.5" points="568.95,-137.56 568.06,-127.01 562.17,-135.81 568.95,-137.56"/>
<text text-anchor="middle" x="601" y="-279.6" font-family="Segoe UI, Arial, sans-serif" font-size="13.00" fill="#b71c1c">branch 생성 실패</text>
</g>
<!-- waiting_for_human_plan_confirm&#45;&gt;planned -->
<g id="edge6" class="edge">
<title>waiting_for_human_plan_confirm&#45;&gt;planned</title>
<path fill="none" stroke="#4caf50" stroke-width="1.5" d="M214.85,-481.04C245.08,-495.5 286.05,-512.51 324.5,-520 446.07,-543.69 589.75,-505.04 667.7,-478.57"/>
<polygon fill="#4caf50" stroke="#4caf50" stroke-width="1.5" points="669.02,-481.81 677.33,-475.24 666.74,-475.19 669.02,-481.81"/>
<text text-anchor="middle" x="374" y="-518.6" font-family="Segoe UI, Arial, sans-serif" font-size="13.00" fill="#2e7d32">approve /</text>
<text text-anchor="middle" x="374" y="-504.6" font-family="Segoe UI, Arial, sans-serif" font-size="13.00" fill="#2e7d32">timeout 자동승인</text>
</g>
<!-- needs_replan -->
<g id="node6" class="node">
<title>needs_replan</title>
<path fill="#e91e63" stroke="#880e4f" stroke-width="2" d="M548.5,-481C548.5,-481 451.5,-481 451.5,-481 445.5,-481 439.5,-475 439.5,-469 439.5,-469 439.5,-445 439.5,-445 439.5,-439 445.5,-433 451.5,-433 451.5,-433 548.5,-433 548.5,-433 554.5,-433 560.5,-439 560.5,-445 560.5,-445 560.5,-469 560.5,-469 560.5,-475 554.5,-481 548.5,-481"/>
<text text-anchor="middle" x="500" y="-462.2" font-family="Segoe UI, Arial, sans-serif" font-size="16.00" fill="white">needs_replan</text>
<text text-anchor="middle" x="500" y="-444.2" font-family="Segoe UI, Arial, sans-serif" font-size="16.00" fill="white">(재계획 필요)</text>
</g>
<!-- waiting_for_human_plan_confirm&#45;&gt;needs_replan -->
<g id="edge7" class="edge">
<title>waiting_for_human_plan_confirm&#45;&gt;needs_replan</title>
<path fill="none" stroke="#e91e63" stroke-width="1.5" d="M299.63,-439.93C336.04,-437.33 375.59,-436.51 412,-440 417.52,-440.53 423.2,-441.24 428.91,-442.07"/>
<polygon fill="#e91e63" stroke="#e91e63" stroke-width="1.5" points="428.73,-445.59 439.15,-443.68 429.82,-438.67 428.73,-445.59"/>
<text text-anchor="middle" x="369.5" y="-443.6" font-family="Segoe UI, Arial, sans-serif" font-size="13.00" fill="#880e4f">reject (modify)</text>
</g>
<!-- waiting_for_human_plan_confirm&#45;&gt;cancelled -->
<g id="edge8" class="edge">
<title>waiting_for_human_plan_confirm&#45;&gt;cancelled</title>
<path fill="none" stroke="#888888" stroke-width="1.5" stroke-dasharray="5,2" d="M174.71,-432.76C189.87,-371.04 231.09,-203.25 247.31,-137.22"/>
<polygon fill="#888888" stroke="#888888" stroke-width="1.5" points="250.79,-137.72 249.78,-127.17 244,-136.05 250.79,-137.72"/>
<text text-anchor="middle" x="235" y="-279.6" font-family="Segoe UI, Arial, sans-serif" font-size="13.00" fill="#555555">cancel</text>
</g>
<!-- needs_replan&#45;&gt;planned -->
<g id="edge10" class="edge">
<title>needs_replan&#45;&gt;planned</title>
<path fill="none" stroke="#666688" stroke-width="1.5" d="M560.59,-457C593.71,-457 634.52,-457 667.19,-457"/>
<polygon fill="#666688" stroke="#666688" stroke-width="1.5" points="667.5,-460.5 677.5,-457 667.5,-453.5 667.5,-460.5"/>
<text text-anchor="middle" x="619" y="-477.6" font-family="Segoe UI, Arial, sans-serif" font-size="13.00" fill="#333333">Replanner 성공</text>
<text text-anchor="middle" x="619" y="-463.6" font-family="Segoe UI, Arial, sans-serif" font-size="13.00" fill="#333333">(review=false)</text>
</g>
<!-- needs_replan&#45;&gt;waiting_for_human_plan_confirm -->
<g id="edge9" class="edge">
<title>needs_replan&#45;&gt;waiting_for_human_plan_confirm</title>
<path fill="none" stroke="#666688" stroke-width="1.5" d="M439.06,-457C402.78,-457 355.16,-457 310.01,-457"/>
<polygon fill="#666688" stroke="#666688" stroke-width="1.5" points="309.82,-453.5 299.82,-457 309.82,-460.5 309.82,-453.5"/>
<text text-anchor="middle" x="369.5" y="-477.6" font-family="Segoe UI, Arial, sans-serif" font-size="13.00" fill="#333333">Replanner 성공</text>
<text text-anchor="middle" x="369.5" y="-463.6" font-family="Segoe UI, Arial, sans-serif" font-size="13.00" fill="#333333">(review=true)</text>
</g>
<!-- needs_replan&#45;&gt;failed -->
<g id="edge11" class="edge">
<title>needs_replan&#45;&gt;failed</title>
<path fill="none" stroke="#f44336" stroke-width="1.5" d="M502.92,-432.83C505.41,-403.48 505.59,-352.48 483,-317 473.99,-302.85 459.13,-311.67 451,-297 444.97,-286.12 447,-280.78 451,-269 469.68,-213.95 515.94,-163.04 545.83,-134.3"/>
<polygon fill="#f44336" stroke="#f44336" stroke-width="1.5" points="548.54,-136.55 553.41,-127.14 543.74,-131.46 548.54,-136.55"/>
<text text-anchor="middle" x="497" y="-279.6" font-family="Segoe UI, Arial, sans-serif" font-size="13.00" fill="#b71c1c">Replanner 실패</text>
</g>
<!-- in_progress&#45;&gt;needs_replan -->
<g id="edge17" class="edge">
<title>in_progress&#45;&gt;needs_replan</title>
<path fill="none" stroke="#e91e63" stroke-width="1.5" d="M680.33,-365.04C644.05,-383.34 593.19,-408.99 554.73,-428.39"/>
<polygon fill="#e91e63" stroke="#e91e63" stroke-width="1.5" points="553.09,-425.3 545.73,-432.93 556.24,-431.55 553.09,-425.3"/>
<text text-anchor="middle" x="673.5" y="-402.6" font-family="Segoe UI, Arial, sans-serif" font-size="13.00" fill="#880e4f">Reporter:</text>
<text text-anchor="middle" x="673.5" y="-388.6" font-family="Segoe UI, Arial, sans-serif" font-size="13.00" fill="#880e4f">replan 요청</text>
</g>
<!-- in_progress&#45;&gt;in_progress -->
<g id="edge14" class="edge">
<title>in_progress&#45;&gt;in_progress</title>
<path fill="none" stroke="#ff9800" stroke-width="1.5" stroke-dasharray="5,2" d="M796.8,-351.46C811.19,-350.32 821.5,-346.83 821.5,-341 821.5,-336.62 815.7,-333.57 806.73,-331.83"/>
<polygon fill="#ff9800" stroke="#ff9800" stroke-width="1.5" points="807.17,-328.36 796.8,-330.54 806.26,-335.3 807.17,-328.36"/>
<text text-anchor="middle" x="914" y="-344.6" font-family="Segoe UI, Arial, sans-serif" font-size="13.00" fill="#e65100">subtask 완료 → 다음</text>
<text text-anchor="middle" x="914" y="-330.6" font-family="Segoe UI, Arial, sans-serif" font-size="13.00" fill="#e65100">Reviewer 거절 → Coder 재시도</text>
</g>
<!-- waiting_for_human_pr_approve -->
<g id="node8" class="node">
<title>waiting_for_human_pr_approve</title>
<path fill="#ff5722" stroke="#bf360c" stroke-width="2" d="M1065,-249C1065,-249 839,-249 839,-249 833,-249 827,-243 827,-237 827,-237 827,-213 827,-213 827,-207 833,-201 839,-201 839,-201 1065,-201 1065,-201 1071,-201 1077,-207 1077,-213 1077,-213 1077,-237 1077,-237 1077,-243 1071,-249 1065,-249"/>
<text text-anchor="middle" x="952" y="-230.2" font-family="Segoe UI, Arial, sans-serif" font-size="16.00" fill="white">waiting_for_human_pr_approve</text>
<text text-anchor="middle" x="952" y="-212.2" font-family="Segoe UI, Arial, sans-serif" font-size="16.00" fill="white">(PR 머지 대기)</text>
</g>
<!-- in_progress&#45;&gt;waiting_for_human_pr_approve -->
<g id="edge16" class="edge">
<title>in_progress&#45;&gt;waiting_for_human_pr_approve</title>
<path fill="none" stroke="#666688" stroke-width="1.5" d="M771.73,-316.93C808.03,-298.62 858.89,-272.96 897.34,-253.57"/>
<polygon fill="#666688" stroke="#666688" stroke-width="1.5" points="898.98,-256.66 906.33,-249.04 895.83,-250.41 898.98,-256.66"/>
<text text-anchor="middle" x="925.5" y="-286.6" font-family="Segoe UI, Arial, sans-serif" font-size="13.00" fill="#333333">모든 subtask 완료</text>
<text text-anchor="middle" x="925.5" y="-272.6" font-family="Segoe UI, Arial, sans-serif" font-size="13.00" fill="#333333">+ auto_merge=false</text>
</g>
<!-- completed -->
<g id="node9" class="node">
<title>completed</title>
<path fill="#4caf50" stroke="#2e7d32" stroke-width="2.5" d="M989,-127C989,-127 915,-127 915,-127 909,-127 903,-121 903,-115 903,-115 903,-103 903,-103 903,-97 909,-91 915,-91 915,-91 989,-91 989,-91 995,-91 1001,-97 1001,-103 1001,-103 1001,-115 1001,-115 1001,-121 995,-127 989,-127"/>
<text text-anchor="middle" x="952" y="-105.2" font-family="Segoe UI, Arial, sans-serif" font-size="16.00" fill="white">completed</text>
</g>
<!-- in_progress&#45;&gt;completed -->
<g id="edge15" class="edge">
<title>in_progress&#45;&gt;completed</title>
<path fill="none" stroke="#4caf50" stroke-width="1.5" d="M796.58,-333.66C893.42,-323.21 1059.05,-298.4 1090,-249 1120,-201.12 1052.92,-156.84 1002.14,-131.65"/>
<polygon fill="#4caf50" stroke="#4caf50" stroke-width="1.5" points="1003.41,-128.37 992.88,-127.17 1000.36,-134.68 1003.41,-128.37"/>
<text text-anchor="middle" x="1154" y="-228.6" font-family="Segoe UI, Arial, sans-serif" font-size="13.00" fill="#2e7d32">모든 subtask 완료</text>
<text text-anchor="middle" x="1154" y="-214.6" font-family="Segoe UI, Arial, sans-serif" font-size="13.00" fill="#2e7d32">+ auto_merge=true</text>
</g>
<!-- in_progress&#45;&gt;failed -->
<g id="edge19" class="edge">
<title>in_progress&#45;&gt;failed</title>
<path fill="none" stroke="#f44336" stroke-width="1.5" d="M723.22,-316.83C718.74,-287.48 707.68,-236.47 682,-201 662.17,-173.61 632.3,-149.45 608.84,-132.92"/>
<polygon fill="#f44336" stroke="#f44336" stroke-width="1.5" points="610.74,-129.98 600.52,-127.18 606.77,-135.74 610.74,-129.98"/>
<text text-anchor="middle" x="745" y="-228.6" font-family="Segoe UI, Arial, sans-serif" font-size="13.00" fill="#b71c1c">Agent/git/PR</text>
<text text-anchor="middle" x="745" y="-214.6" font-family="Segoe UI, Arial, sans-serif" font-size="13.00" fill="#b71c1c">실패</text>
</g>
<!-- in_progress&#45;&gt;cancelled -->
<g id="edge20" class="edge">
<title>in_progress&#45;&gt;cancelled</title>
<path fill="none" stroke="#888888" stroke-width="1.5" stroke-dasharray="5,2" d="M714.07,-316.78C705.14,-301.39 691.62,-281.75 675,-269 644.83,-245.85 417.1,-165.96 309.71,-129.02"/>
<polygon fill="#888888" stroke="#888888" stroke-width="1.5" points="310.61,-125.63 300.02,-125.69 308.34,-132.25 310.61,-125.63"/>
<text text-anchor="middle" x="655" y="-221.6" font-family="Segoe UI, Arial, sans-serif" font-size="13.00" fill="#555555">cancel</text>
</g>
<!-- escalated -->
<g id="node12" class="node">
<title>escalated</title>
<path fill="#9c27b0" stroke="#6a1b9a" stroke-width="2.5" d="M1242,-133C1242,-133 1138,-133 1138,-133 1132,-133 1126,-127 1126,-121 1126,-121 1126,-97 1126,-97 1126,-91 1132,-85 1138,-85 1138,-85 1242,-85 1242,-85 1248,-85 1254,-91 1254,-97 1254,-97 1254,-121 1254,-121 1254,-127 1248,-133 1242,-133"/>
<text text-anchor="middle" x="1190" y="-114.2" font-family="Segoe UI, Arial, sans-serif" font-size="16.00" fill="white">escalated</text>
<text text-anchor="middle" x="1190" y="-96.2" font-family="Segoe UI, Arial, sans-serif" font-size="16.00" fill="white">(수동 개입 필요)</text>
</g>
<!-- in_progress&#45;&gt;escalated -->
<g id="edge18" class="edge">
<title>in_progress&#45;&gt;escalated</title>
<path fill="none" stroke="#9c27b0" stroke-width="1.5" d="M796.73,-338.13C920.4,-333.14 1167.5,-314.96 1217,-249 1240.27,-218 1224.63,-172.45 1209.18,-142.04"/>
<polygon fill="#9c27b0" stroke="#9c27b0" stroke-width="1.5" points="1212.23,-140.3 1204.44,-133.12 1206.04,-143.59 1212.23,-140.3"/>
<text text-anchor="middle" x="1266.5" y="-228.6" font-family="Segoe UI, Arial, sans-serif" font-size="13.00" fill="#6a1b9a">한도 초과</text>
<text text-anchor="middle" x="1266.5" y="-214.6" font-family="Segoe UI, Arial, sans-serif" font-size="13.00" fill="#6a1b9a">에스컬레이션</text>
</g>
<!-- waiting_for_human_pr_approve&#45;&gt;completed -->
<g id="edge21" class="edge">
<title>waiting_for_human_pr_approve&#45;&gt;completed</title>
<path fill="none" stroke="#4caf50" stroke-width="1.5" stroke-dasharray="5,2" d="M952,-200.93C952,-182.49 952,-156.59 952,-137.15"/>
<polygon fill="#4caf50" stroke="#4caf50" stroke-width="1.5" points="955.5,-137.1 952,-127.1 948.5,-137.1 955.5,-137.1"/>
<text text-anchor="middle" x="991" y="-170.6" font-family="Segoe UI, Arial, sans-serif" font-size="13.00" fill="#2e7d32">PR 수동 머지</text>
<text text-anchor="middle" x="991" y="-156.6" font-family="Segoe UI, Arial, sans-serif" font-size="13.00" fill="#2e7d32">(외부)</text>
</g>
<!-- waiting_for_human_pr_approve&#45;&gt;failed -->
<g id="edge22" class="edge">
<title>waiting_for_human_pr_approve&#45;&gt;failed</title>
<path fill="none" stroke="#f44336" stroke-width="1.5" stroke-dasharray="5,2" d="M889.03,-200.84C848.24,-186.22 793.82,-167.45 745,-153 700.68,-139.88 649.16,-127.36 614.15,-119.24"/>
<polygon fill="#f44336" stroke="#f44336" stroke-width="1.5" points="614.82,-115.81 604.29,-116.97 613.25,-122.63 614.82,-115.81"/>
<text text-anchor="middle" x="870" y="-170.6" font-family="Segoe UI, Arial, sans-serif" font-size="13.00" fill="#b71c1c">PR 거부/닫힘</text>
<text text-anchor="middle" x="870" y="-156.6" font-family="Segoe UI, Arial, sans-serif" font-size="13.00" fill="#b71c1c">(외부)</text>
</g>
<!-- completed&#45;&gt;end -->
<g id="edge23" class="edge">
<title>completed&#45;&gt;end</title>
<path fill="none" stroke="#4caf50" stroke-width="1.5" d="M907.95,-90.9C864.72,-74.12 800,-49 762.59,-34.49"/>
<polygon fill="#4caf50" stroke="#4caf50" stroke-width="1.5" points="763.84,-31.22 753.25,-30.86 761.31,-37.74 763.84,-31.22"/>
</g>
<!-- failed&#45;&gt;end -->
<g id="edge24" class="edge">
<title>failed&#45;&gt;end</title>
<path fill="none" stroke="#f44336" stroke-width="1.5" d="M604.23,-91.41C633.48,-75.87 676.8,-52.86 704.97,-37.89"/>
<polygon fill="#f44336" stroke="#f44336" stroke-width="1.5" points="706.71,-40.93 713.9,-33.15 703.42,-34.75 706.71,-40.93"/>
</g>
<!-- resubmit_note -->
<g id="node13" class="node">
<title>resubmit_note</title>
<polygon fill="#e8e8f0" stroke="#666688" stroke-width="2" points="378.5,-42 291.5,-42 291.5,-2 384.5,-2 384.5,-36 378.5,-42"/>
<polyline fill="none" stroke="#666688" stroke-width="2" points="378.5,-42 378.5,-36 "/>
<polyline fill="none" stroke="#666688" stroke-width="2" points="384.5,-36 378.5,-36 "/>
<text text-anchor="middle" x="338" y="-25.6" font-family="Segoe UI, Arial, sans-serif" font-size="13.00" fill="#0077aa">resubmit →</text>
<text text-anchor="middle" x="338" y="-11.6" font-family="Segoe UI, Arial, sans-serif" font-size="13.00" fill="#0077aa">새 task 생성</text>
</g>
<!-- failed&#45;&gt;resubmit_note -->
<g id="edge27" class="edge">
<title>failed&#45;&gt;resubmit_note</title>
<path fill="none" stroke="#0077aa" stroke-width="1.5" stroke-dasharray="1,5" d="M541.79,-96.71C501.59,-82.17 431.35,-56.77 384.76,-39.91"/>
</g>
<!-- cancelled&#45;&gt;end -->
<g id="edge25" class="edge">
<title>cancelled&#45;&gt;end</title>
<path fill="none" stroke="#888888" stroke-width="1.5" d="M300.36,-99.77C397.19,-82.59 618.74,-43.27 701.26,-28.63"/>
<polygon fill="#888888" stroke="#888888" stroke-width="1.5" points="702.05,-32.05 711.29,-26.85 700.83,-25.15 702.05,-32.05"/>
</g>
<!-- cancelled&#45;&gt;resubmit_note -->
<g id="edge28" class="edge">
<title>cancelled&#45;&gt;resubmit_note</title>
<path fill="none" stroke="#0077aa" stroke-width="1.5" stroke-dasharray="1,5" d="M263.48,-90.7C268.62,-82.15 275.46,-71.98 283,-64 290.52,-56.03 299.74,-48.5 308.46,-42.11"/>
</g>
<!-- escalated&#45;&gt;end -->
<g id="edge26" class="edge">
<title>escalated&#45;&gt;end</title>
<path fill="none" stroke="#9c27b0" stroke-width="1.5" d="M1125.97,-96.09C1026.7,-77.63 839.32,-42.77 764.76,-28.91"/>
<polygon fill="#9c27b0" stroke="#9c27b0" stroke-width="1.5" points="765.08,-25.41 754.61,-27.02 763.8,-32.29 765.08,-25.41"/>
</g>
<!-- resubmit_note&#45;&gt;submitted -->
<g id="edge29" class="edge">
<title>resubmit_note&#45;&gt;submitted</title>
<path fill="none" stroke="#0077aa" stroke-width="1.5" stroke-dasharray="1,5" d="M338,-42.24C338,-59.47 338,-85.42 338,-108 338,-400 338,-400 338,-400 338,-426.52 323.11,-496.87 313.65,-538.93"/>
<polygon fill="#0077aa" stroke="#0077aa" stroke-width="1.5" points="310.23,-538.19 311.43,-548.72 317.05,-539.74 310.23,-538.19"/>
<text text-anchor="middle" x="359" y="-279.6" font-family="Segoe UI, Arial, sans-serif" font-size="13.00" fill="#333333">새 task</text>
</g>
</g>
</svg>
